<?xml version="1.0" encoding="UTF-8"?>
<svg viewBox="0 0 352 352" xmlns="http://www.w3.org/2000/svg">
  <defs>
    <mask id="cutouts">
      <rect width="100%" height="100%" fill="white"/>
      <rect id="flash" x="258" y="105" width="78" height="22" rx="1" fill="black"/>
      <circle id="outer-lens" cx="176" cy="197" r="88" fill="black"/>
      <circle id="inner-lens" cx="176" cy="197" r="56" fill="white"/>
      <path
        id="f-glyph"
        fill="black"
        d="
          M160 171
          A1 1 0 0 1 161 170
          H191
          A1 1 0 0 1 192 171

          V182
          A1 1 0 0 1 191 183
          H172

          V192
          H190
          A1 1 0 0 1 191 193

          V204
          A1 1 0 0 1 190 205
          H172

          V226
          A1 1 0 0 1 171 227
          H161
          A1 1 0 0 1 160 226

          Z
        "
      />
    </mask>
  </defs>
  <path
    id="camera"
    mask="url(#cutouts)"
    fill="white"
    d="
      M0 109
      C0 94 3 89 24 89

      H105
      A1 1 0 0 0 106 88
      C110 53 110 47 129 47

      H223
      C242 47 242 53 247 89
      H332

      C349 89 352 94 352 109
      V285
      C352 300 350 305 332 305

      H20
      C2 305 0 300 0 285
      Z
    "
  />
</svg>
